<mxfile host="app.diagrams.net" modified="2024-07-10T06:24:10.684Z" agent="Mozilla/5.0 (X11; Ubuntu; Linux x86_64; rv:127.0) Gecko/20100101 Firefox/127.0" etag="BWEPL6LWIkdQ5qfEM5Ks" version="24.6.4" type="device">
  <diagram name="Page-1" id="F5p9pbc7tB2g5aHlmoqs">
    <mxGraphModel dx="1364" dy="915" grid="1" gridSize="10" guides="1" tooltips="1" connect="1" arrows="1" fold="1" page="1" pageScale="1" pageWidth="850" pageHeight="1100" math="0" shadow="0">
      <root>
        <mxCell id="0" />
        <mxCell id="1" parent="0" />
        <mxCell id="PpKfus5s-THt8dw7ttCS-1" value="" style="shape=mxgraph.cisco.routers.router;sketch=0;html=1;pointerEvents=1;dashed=0;fillColor=#036897;strokeColor=#ffffff;strokeWidth=2;verticalLabelPosition=bottom;verticalAlign=top;align=center;outlineConnect=0;" vertex="1" parent="1">
          <mxGeometry x="150" y="310" width="78" height="53" as="geometry" />
        </mxCell>
        <mxCell id="PpKfus5s-THt8dw7ttCS-2" value="" style="shape=mxgraph.cisco.routers.router;sketch=0;html=1;pointerEvents=1;dashed=0;fillColor=#036897;strokeColor=#ffffff;strokeWidth=2;verticalLabelPosition=bottom;verticalAlign=top;align=center;outlineConnect=0;" vertex="1" parent="1">
          <mxGeometry x="270" y="138" width="78" height="53" as="geometry" />
        </mxCell>
        <mxCell id="PpKfus5s-THt8dw7ttCS-3" value="" style="shape=mxgraph.cisco.routers.router;sketch=0;html=1;pointerEvents=1;dashed=0;fillColor=#036897;strokeColor=#ffffff;strokeWidth=2;verticalLabelPosition=bottom;verticalAlign=top;align=center;outlineConnect=0;" vertex="1" parent="1">
          <mxGeometry x="386" y="300" width="78" height="53" as="geometry" />
        </mxCell>
        <mxCell id="PpKfus5s-THt8dw7ttCS-4" value="" style="shape=mxgraph.cisco.routers.router;sketch=0;html=1;pointerEvents=1;dashed=0;fillColor=#036897;strokeColor=#ffffff;strokeWidth=2;verticalLabelPosition=bottom;verticalAlign=top;align=center;outlineConnect=0;" vertex="1" parent="1">
          <mxGeometry x="630" y="310" width="78" height="53" as="geometry" />
        </mxCell>
        <mxCell id="PpKfus5s-THt8dw7ttCS-5" value="" style="shape=mxgraph.cisco.routers.router;sketch=0;html=1;pointerEvents=1;dashed=0;fillColor=#036897;strokeColor=#ffffff;strokeWidth=2;verticalLabelPosition=bottom;verticalAlign=top;align=center;outlineConnect=0;" vertex="1" parent="1">
          <mxGeometry x="510" y="138" width="78" height="53" as="geometry" />
        </mxCell>
        <mxCell id="PpKfus5s-THt8dw7ttCS-8" value="" style="endArrow=none;html=1;rounded=0;entryX=0.12;entryY=0.9;entryDx=0;entryDy=0;entryPerimeter=0;exitX=0.5;exitY=0;exitDx=0;exitDy=0;exitPerimeter=0;" edge="1" parent="1" source="PpKfus5s-THt8dw7ttCS-1" target="PpKfus5s-THt8dw7ttCS-2">
          <mxGeometry width="50" height="50" relative="1" as="geometry">
            <mxPoint x="400" y="500" as="sourcePoint" />
            <mxPoint x="450" y="450" as="targetPoint" />
          </mxGeometry>
        </mxCell>
        <mxCell id="PpKfus5s-THt8dw7ttCS-9" value="" style="endArrow=none;html=1;rounded=0;entryX=0.12;entryY=0.9;entryDx=0;entryDy=0;entryPerimeter=0;exitX=0.5;exitY=0;exitDx=0;exitDy=0;exitPerimeter=0;" edge="1" parent="1" source="PpKfus5s-THt8dw7ttCS-3">
          <mxGeometry width="50" height="50" relative="1" as="geometry">
            <mxPoint x="426" y="310" as="sourcePoint" />
            <mxPoint x="531" y="186" as="targetPoint" />
          </mxGeometry>
        </mxCell>
        <mxCell id="PpKfus5s-THt8dw7ttCS-10" value="" style="endArrow=none;html=1;rounded=0;entryX=0.88;entryY=0.9;entryDx=0;entryDy=0;entryPerimeter=0;exitX=0.5;exitY=0;exitDx=0;exitDy=0;exitPerimeter=0;" edge="1" parent="1" source="PpKfus5s-THt8dw7ttCS-3" target="PpKfus5s-THt8dw7ttCS-2">
          <mxGeometry width="50" height="50" relative="1" as="geometry">
            <mxPoint x="199" y="320" as="sourcePoint" />
            <mxPoint x="289" y="196" as="targetPoint" />
          </mxGeometry>
        </mxCell>
        <mxCell id="PpKfus5s-THt8dw7ttCS-11" value="" style="endArrow=none;html=1;rounded=0;entryX=0.88;entryY=0.9;entryDx=0;entryDy=0;entryPerimeter=0;exitX=0.5;exitY=0;exitDx=0;exitDy=0;exitPerimeter=0;" edge="1" parent="1">
          <mxGeometry width="50" height="50" relative="1" as="geometry">
            <mxPoint x="666" y="307" as="sourcePoint" />
            <mxPoint x="580" y="183" as="targetPoint" />
          </mxGeometry>
        </mxCell>
        <mxCell id="PpKfus5s-THt8dw7ttCS-13" value="" style="endArrow=none;html=1;rounded=0;exitX=0.88;exitY=0.1;exitDx=0;exitDy=0;exitPerimeter=0;entryX=0;entryY=0.5;entryDx=0;entryDy=0;entryPerimeter=0;" edge="1" parent="1" source="PpKfus5s-THt8dw7ttCS-1" target="PpKfus5s-THt8dw7ttCS-5">
          <mxGeometry width="50" height="50" relative="1" as="geometry">
            <mxPoint x="400" y="500" as="sourcePoint" />
            <mxPoint x="490" y="170" as="targetPoint" />
          </mxGeometry>
        </mxCell>
        <mxCell id="PpKfus5s-THt8dw7ttCS-14" value="" style="endArrow=none;html=1;rounded=0;exitX=0.12;exitY=0.1;exitDx=0;exitDy=0;exitPerimeter=0;entryX=1;entryY=0.5;entryDx=0;entryDy=0;entryPerimeter=0;" edge="1" parent="1" source="PpKfus5s-THt8dw7ttCS-4" target="PpKfus5s-THt8dw7ttCS-2">
          <mxGeometry width="50" height="50" relative="1" as="geometry">
            <mxPoint x="229" y="325" as="sourcePoint" />
            <mxPoint x="520" y="192" as="targetPoint" />
          </mxGeometry>
        </mxCell>
        <mxCell id="PpKfus5s-THt8dw7ttCS-15" value="&lt;div align=&quot;left&quot;&gt;Spine-1&lt;/div&gt;&lt;div&gt;ASN: 4200000001&lt;/div&gt;" style="text;html=1;align=center;verticalAlign=middle;whiteSpace=wrap;rounded=0;" vertex="1" parent="1">
          <mxGeometry x="229" y="80" width="160" height="30" as="geometry" />
        </mxCell>
        <mxCell id="PpKfus5s-THt8dw7ttCS-16" value="&lt;div align=&quot;left&quot;&gt;Spine-2&lt;/div&gt;&lt;div&gt;ASN: 4200000001&lt;/div&gt;" style="text;html=1;align=center;verticalAlign=middle;whiteSpace=wrap;rounded=0;" vertex="1" parent="1">
          <mxGeometry x="480" y="80" width="160" height="30" as="geometry" />
        </mxCell>
        <mxCell id="PpKfus5s-THt8dw7ttCS-17" value="&lt;div align=&quot;left&quot;&gt;Leaf-1&lt;br&gt;&lt;/div&gt;&lt;div&gt;ASN: 4200010001&lt;/div&gt;" style="text;html=1;align=center;verticalAlign=middle;whiteSpace=wrap;rounded=0;" vertex="1" parent="1">
          <mxGeometry x="100" y="390" width="160" height="30" as="geometry" />
        </mxCell>
        <mxCell id="PpKfus5s-THt8dw7ttCS-18" value="&lt;div align=&quot;left&quot;&gt;Leaf-2&lt;br&gt;&lt;/div&gt;&lt;div&gt;ASN: 4200010002&lt;/div&gt;" style="text;html=1;align=center;verticalAlign=middle;whiteSpace=wrap;rounded=0;" vertex="1" parent="1">
          <mxGeometry x="345" y="390" width="160" height="30" as="geometry" />
        </mxCell>
        <mxCell id="PpKfus5s-THt8dw7ttCS-19" value="&lt;div align=&quot;left&quot;&gt;Leaf-3&lt;br&gt;&lt;/div&gt;&lt;div&gt;ASN: 4200010003&lt;/div&gt;" style="text;html=1;align=center;verticalAlign=middle;whiteSpace=wrap;rounded=0;" vertex="1" parent="1">
          <mxGeometry x="589" y="390" width="160" height="30" as="geometry" />
        </mxCell>
        <mxCell id="PpKfus5s-THt8dw7ttCS-20" value="&lt;font color=&quot;#3333ff&quot;&gt;ECMP&lt;/font&gt;" style="text;html=1;align=center;verticalAlign=middle;whiteSpace=wrap;rounded=0;" vertex="1" parent="1">
          <mxGeometry x="130" y="180" width="60" height="30" as="geometry" />
        </mxCell>
        <mxCell id="PpKfus5s-THt8dw7ttCS-21" value="" style="endArrow=classic;html=1;rounded=0;strokeColor=#3333FF;exitX=0.5;exitY=1;exitDx=0;exitDy=0;" edge="1" parent="1" source="PpKfus5s-THt8dw7ttCS-20">
          <mxGeometry width="50" height="50" relative="1" as="geometry">
            <mxPoint x="400" y="500" as="sourcePoint" />
            <mxPoint x="200" y="290" as="targetPoint" />
          </mxGeometry>
        </mxCell>
        <mxCell id="PpKfus5s-THt8dw7ttCS-22" value="" style="endArrow=classic;html=1;rounded=0;strokeColor=#3333FF;exitX=0.5;exitY=1;exitDx=0;exitDy=0;" edge="1" parent="1" source="PpKfus5s-THt8dw7ttCS-20">
          <mxGeometry width="50" height="50" relative="1" as="geometry">
            <mxPoint x="400" y="500" as="sourcePoint" />
            <mxPoint x="280" y="280" as="targetPoint" />
          </mxGeometry>
        </mxCell>
        <mxCell id="PpKfus5s-THt8dw7ttCS-23" value="&lt;div align=&quot;left&quot;&gt;&lt;font color=&quot;#3333ff&quot;&gt;Одинаковые ASN у Spine в Rack для предотвращения кольцевых маршрутов&lt;/font&gt;&lt;br&gt;&lt;/div&gt;" style="text;html=1;align=center;verticalAlign=middle;whiteSpace=wrap;rounded=0;" vertex="1" parent="1">
          <mxGeometry x="630" y="20" width="250" height="30" as="geometry" />
        </mxCell>
        <mxCell id="PpKfus5s-THt8dw7ttCS-24" value="" style="endArrow=classic;html=1;rounded=0;strokeColor=#3333FF;" edge="1" parent="1">
          <mxGeometry width="50" height="50" relative="1" as="geometry">
            <mxPoint x="620" y="60" as="sourcePoint" />
            <mxPoint x="390" y="80" as="targetPoint" />
          </mxGeometry>
        </mxCell>
        <mxCell id="PpKfus5s-THt8dw7ttCS-25" value="" style="endArrow=classic;html=1;rounded=0;strokeColor=#3333FF;entryX=0.675;entryY=-0.033;entryDx=0;entryDy=0;entryPerimeter=0;" edge="1" parent="1" target="PpKfus5s-THt8dw7ttCS-16">
          <mxGeometry width="50" height="50" relative="1" as="geometry">
            <mxPoint x="620" y="60" as="sourcePoint" />
            <mxPoint x="450" y="450" as="targetPoint" />
          </mxGeometry>
        </mxCell>
      </root>
    </mxGraphModel>
  </diagram>
</mxfile>
